<svg xmlns="http://www.w3.org/2000/svg" xmlns:xlink="http://www.w3.org/1999/xlink" width="19.1" height="24" viewBox="0 0 19.1 24">
  <defs>
    <linearGradient id="linear-gradient" x1="0.5" x2="0.5" y2="1" gradientUnits="objectBoundingBox">
      <stop offset="0" stop-color="#fa641e"/>
      <stop offset="1" stop-color="#ff881f"/>
    </linearGradient>
  </defs>
  <path id="pigz-simbolo-colorido" d="M11.279,0H1.846A1.9,1.9,0,0,0,.5.445a1.851,1.851,0,0,0-.5,1.4V22.153a2.122,2.122,0,0,0,.266,1.115A1.707,1.707,0,0,0,1.846,24H4.028a2.021,2.021,0,0,0,1.217-.333,1.759,1.759,0,0,0,.63-1.513V17.071l-.123-.019a5.715,5.715,0,0,1-3.6-1.653h0a7.84,7.84,0,0,0,4.261,1.184h4.866c4.666,0,7.821-3.491,7.821-8.324S15.944,0,11.279,0ZM5.846,10.87A2.579,2.579,0,1,1,8.419,8.291,2.576,2.576,0,0,1,5.846,10.87Zm7.408,0a2.579,2.579,0,1,1,2.573-2.579A2.576,2.576,0,0,1,13.254,10.87Z" fill="url(#linear-gradient)"/>
</svg>
