<svg xmlns="http://www.w3.org/2000/svg" width="31.834" height="40" viewBox="0 0 31.834 40">
  <path id="pigz-simbolo-colorido" d="M18.8,0H3.077A3.158,3.158,0,0,0,.826.742,3.085,3.085,0,0,0,0,3.077V36.922a3.536,3.536,0,0,0,.443,1.859A2.845,2.845,0,0,0,3.077,40H6.713a3.368,3.368,0,0,0,2.028-.556A2.931,2.931,0,0,0,9.79,36.922V28.451l-.205-.031a9.525,9.525,0,0,1-6-2.756h0a13.067,13.067,0,0,0,7.1,1.973H18.8c7.776,0,13.035-5.819,13.035-13.874S26.574,0,18.8,0ZM9.743,18.116a4.3,4.3,0,1,1,4.289-4.3A4.293,4.293,0,0,1,9.743,18.116Zm12.347,0a4.3,4.3,0,1,1,4.289-4.3A4.293,4.293,0,0,1,22.09,18.116Z" fill="#fff"/>
</svg>
